# xmcd
#
# Track frame offsets:
#	150
#	15573
#	30544
#	47108
#	62530
#	76501
#	94134
#	110885
#	127780
#	140421
#	166827
#
# Disc length: 2552 seconds
#
# Revision: 0
# Processed by: cddbd v1.5.2PL0 Copyright (c) Steve Scherf et al.
# Submitted via: EasyCDDAExtractor 10.2.0.1
#
DISCID=7f09f60b
DTITLE=Debbie Helton - Redefined
DYEAR=1998
DGENRE=Gospel
TTITLE0=My Herat Was In Your Hand
TTITLE1=Everybody Wants To Go To Heaven
TTITLE2=He's Not Here, He Has Risen
TTITLE3=No Greater Love
TTITLE4=Jesus Got Up For Me
TTITLE5=I'll Be Back
TTITLE6=One Day Too Late
TTITLE7=Thy Kingdom Come
TTITLE8=Bought By The Blood
TTITLE9=Calvary's The Reason Why
TTITLE10=When The World Sings Worthy
EXTD=
EXTT0=
EXTT1=
EXTT2=
EXTT3=
EXTT4=
EXTT5=
EXTT6=
EXTT7=
EXTT8=
EXTT9=
EXTT10=
PLAYORDER=
